<svg xmlns="http://www.w3.org/2000/svg" xmlns:xlink="http://www.w3.org/1999/xlink" viewBox="0 0 290 60"><defs><linearGradient id="Gradiente_sem_nome_2" x1="30" y1="-0.28" x2="30" y2="60.76" gradientUnits="userSpaceOnUse"><stop offset="0" stop-color="#f57f17"/><stop offset="0.05" stop-color="#f77c13"/><stop offset="0.28" stop-color="#fd7205"/><stop offset="0.48" stop-color="#ff6f00"/><stop offset="0.67" stop-color="#f96800"/><stop offset="0.96" stop-color="#e85400"/><stop offset="1" stop-color="#e65100"/></linearGradient></defs><title>logotipo_moovery</title><g id="Camada_2" data-name="Camada 2"><g id="Camada_1-2" data-name="Camada 1"><path d="M104,39.92c1,.1,1.47.69,1.33,1.78l-.54,4.4a1.87,1.87,0,0,1-1.78,1.82,32,32,0,0,1-3.21.15q-3.86,0-5.39-1.63c-1-1.09-1.4-3.24-1.14-6.47l1-11.92-6.53,13.7A2.16,2.16,0,0,1,85.7,43H81.84A1.64,1.64,0,0,1,80,41.74L76.7,28.39,74.08,46a1.73,1.73,0,0,1-1.86,1.69h-5.8c-1.12,0-1.57-.6-1.38-1.78l4.75-31.29a1.8,1.8,0,0,1,1.62-1.78l8.36-.89a1.5,1.5,0,0,1,1.78,1.24l3.9,16.16,7.66-15.47A2,2,0,0,1,95,12.59h7.81c1.06,0,1.55.56,1.49,1.68l-1.78,25.4A8.48,8.48,0,0,0,104,39.92Z" style="fill:#fff"/><path d="M204.48,12.67c1.87.14,2.34,1.18,1.41,3.1L191.32,46.08a3.11,3.11,0,0,1-2.95,2h-7.18a2.47,2.47,0,0,1-2.66-2l-5.62-22.7a10.88,10.88,0,0,0-1.48-.29c-1.23-.15-1.72-1-1.47-2.66l.88-5.25a3.27,3.27,0,0,1,2.3-2.88,15.39,15.39,0,0,1,3.47-.37,8.19,8.19,0,0,1,5.25,1.4q1.69,1.41,2.37,5.1L186.59,32l7.17-18a2.64,2.64,0,0,1,2.89-1.92Z" style="fill:#fff"/><path d="M231.25,37.06l1.08,5a2.67,2.67,0,0,1-1.51,3.24,30.55,30.55,0,0,1-13.32,2.81q-7.27,0-10.91-3.89T203,33.1q0-9.44,5-15.3t14.36-5.87q6.48,0,9.55,2.84a10,10,0,0,1,3.06,7.67q0,6.76-4.43,9.43t-14.8,3.39c.43,1.72,1.84,2.59,4.25,2.59a18.55,18.55,0,0,0,8.35-2.09C229.88,34.94,230.87,35.38,231.25,37.06Zm-10-15.92q-4.61,0-5.54,7.13c3.31-.33,5.4-.84,6.26-1.51a3.75,3.75,0,0,0,1.3-3.17C223.26,22,222.59,21.14,221.24,21.14Z" style="fill:#fff"/><path d="M260.75,12.07c1.23.2,1.7,1.09,1.4,2.66L260.83,22a2.58,2.58,0,0,1-.85,1.7,3.49,3.49,0,0,1-2,.44h-1a4.67,4.67,0,0,0-3.24,1.62c-1.09,1.09-1.85,3-2.29,5.76l-1.66,13.93c-.25,1.73-1.15,2.59-2.72,2.59H238.7c-1.61,0-2.3-.86-2-2.58l2.52-22.13a13.22,13.22,0,0,0-1.4-.29c-1.08-.15-1.53-1-1.33-2.58l.66-5.32a3.14,3.14,0,0,1,2.29-2.87,17.56,17.56,0,0,1,3.9-.37,7.63,7.63,0,0,1,7.58,4.87q3.47-4.87,8.11-4.87A11.73,11.73,0,0,1,260.75,12.07Z" style="fill:#fff"/><path d="M288.49,12.25c1.1,0,1.6.62,1.5,1.87l-2.21,19q-.93,8.05-4.84,11.51t-11,3.45A19.44,19.44,0,0,1,264.85,47a1.89,1.89,0,0,1-1.07-2.19l.64-4.39q.33-2.13,2.25-1.44a16.84,16.84,0,0,0,5.94,1,5.48,5.48,0,0,0,3.77-1.06A6.53,6.53,0,0,0,278,35.13a9.94,9.94,0,0,1-6,1.82,10.13,10.13,0,0,1-3.34-.48,5.92,5.92,0,0,1-2.46-1.71,6,6,0,0,1-1.36-3.37,27.25,27.25,0,0,1,0-5.45l.69-5.94a4.67,4.67,0,0,0-1.12-.21c-.79-.11-1.11-.73-1-1.87l.53-3.8q.27-1.81,1.71-2a26,26,0,0,1,3.16-.21,12.71,12.71,0,0,1,2.62.24,6.18,6.18,0,0,1,2.14.91A3.81,3.81,0,0,1,275,15.16a8.43,8.43,0,0,1,.18,3.56l-.64,5.51c-.35,2.92.16,4.38,1.55,4.38q2.63,0,3.27-5.67l1-8.82a1.87,1.87,0,0,1,2-1.87Z" style="fill:#fff"/><path d="M120.15,48.12q-7.17,0-11.19-4t-4-11.41q0-9.75,5.27-15.27t14.12-5.52q7.25,0,11.27,4.11t4,11.48q0,9.68-5.3,15.17T120.15,48.12Zm1-9.19q5.92,0,5.93-11.53,0-6.33-3.84-6.33-5.76,0-5.76,11.7Q117.47,38.94,121.14,38.93Z" style="fill:#fff"/><path d="M149.61,48.12q-7.17,0-11.19-4t-4-11.41q0-9.75,5.27-15.27t14.12-5.52q7.25,0,11.27,4.11t4,11.48q0,9.68-5.3,15.17T149.61,48.12Zm1-9.19q5.93,0,5.93-11.53,0-6.33-3.84-6.33-5.76,0-5.76,11.7Q146.93,38.94,150.6,38.93Z" style="fill:#fff"/><rect width="60" height="60" rx="30" style="fill:url(#Gradiente_sem_nome_2)"/><path d="M20.07,50.45a7,7,0,0,1-5.2-1.88A7.17,7.17,0,0,1,13,43.27a9.85,9.85,0,0,1,2.45-7.09A8.62,8.62,0,0,1,22,33.61a7,7,0,0,1,5.24,1.91,7.36,7.36,0,0,1,1.87,5.34,9.73,9.73,0,0,1-2.47,7A8.71,8.71,0,0,1,20.07,50.45Zm.46-4.27q2.74,0,2.75-5.36c0-2-.59-2.94-1.78-2.94-1.78,0-2.68,1.81-2.68,5.44C18.82,45.23,19.39,46.18,20.53,46.18Z" style="fill:#fff"/><path d="M38,50.45a7,7,0,0,1-5.2-1.88,7.21,7.21,0,0,1-1.87-5.3,9.85,9.85,0,0,1,2.45-7.09,8.65,8.65,0,0,1,6.56-2.57,7,7,0,0,1,5.23,1.91A7.32,7.32,0,0,1,47,40.86a9.72,9.72,0,0,1-2.46,7A8.74,8.74,0,0,1,38,50.45Zm.46-4.27q2.76,0,2.76-5.36c0-2-.6-2.94-1.79-2.94q-2.67,0-2.67,5.44C36.72,45.23,37.28,46.18,38.42,46.18Z" style="fill:#fff"/><path d="M34.32,20.69a7.3,7.3,0,0,0,.56-1.83c-1.05-.49-4.81-1.52-4.81-1.52s-5.48,3.81-5.86,8.4a3.67,3.67,0,0,0,1.72,3.65c2.11,1.09,6.24.86,6.24.86a7.7,7.7,0,0,0-1.12,2.46,31,31,0,0,0-.58,3.38c-.07.45-.93,1.57-.63,2s4.71,1.77,5.33,1.86,1.37-.24.69-.93-2.76-2.55-2.76-2.55,1.93-3.6,3.36-6.1-.66-3.28-1.14-3.53-3.37-1-3.37-1A9.59,9.59,0,0,0,32.82,24c.6,0,2.43.06,5.85-1.75.43.88,1.9.62,2.25.24a1.4,1.4,0,0,0,.33-1.09A1.47,1.47,0,0,0,40,20.25a5,5,0,0,0-1.29.05C35,19.86,34.32,20.69,34.32,20.69Z" style="fill:#fff"/><path d="M30.26,16.29s5,1.53,5.8,1.79c1-.21,1.67-1.77,1.67-1.77s-3.11-.59-4.28-.9S32,13,33.29,12.58s3.39-1.13,4-1.35a4.06,4.06,0,0,0-5.8-.81C28.68,12.46,30.26,16.29,30.26,16.29Z" style="fill:#fff"/><path d="M38,11.75a6.42,6.42,0,0,1,.5,2,4.24,4.24,0,0,1-.28,1.79S34.77,15,34,14.81s-1.41-1.24-.09-1.69S38,11.75,38,11.75Z" style="fill:#fff"/><path d="M37.69,30.62l-1.13,2.12a15.14,15.14,0,0,1,3.5-.49c3.34,0,4.85,1.28,4.85,1.28a8.06,8.06,0,0,0-1.41-4.41l-.33-3.2a1.06,1.06,0,0,0,.63.21c.58,0,1.05-.22,1.05-1S44.38,21,44.38,21a1,1,0,0,0-1.05-1,1.09,1.09,0,0,0-.79.34c-.19-.15-1.26-.57-1.48-.43,1.39.47,1.12,2.36.78,2.81a2.08,2.08,0,0,1-2.21,1c0,.23-.07,1.56-.13,2.37a3.35,3.35,0,0,0-3.08.17,2.57,2.57,0,0,1,1.73,2.4A5.08,5.08,0,0,1,37.69,30.62Z" style="fill:#fff"/><path d="M22.94,28c-4.2-.56-9,1.25-8.9,2.09s2.42,2.17,8,2.17c2.35.07,5,.78,6.25,2.13a8.11,8.11,0,0,1,1.28,1.94,18.26,18.26,0,0,1,.4-3.25,7.44,7.44,0,0,1,.56-1.44S24.16,31.87,22.94,28Z" style="fill:#fff"/><path d="M24.54,17.32c-1.44,0-6,0-7.53,0A2,2,0,0,0,15,19s-2.64,8.45-.46,8.45a20.58,20.58,0,0,1,8-1.11c0-4.68,3.4-7.13,3.94-7.88S26,17.29,24.54,17.32Z" style="fill:#fff"/></g></g></svg>